<?xml version="1.0" encoding="iso-8859-1"?>
<!-- Generator: Adobe Illustrator 19.0.0, SVG Export Plug-In . SVG Version: 6.00 Build 0)  -->
<svg version="1.1" id="Capa_1" xmlns="http://www.w3.org/2000/svg" xmlns:xlink="http://www.w3.org/1999/xlink" x="0px" y="0px"
	 viewBox="0 0 496.485 496.485" style="enable-background:new 0 0 496.485 496.485;" xml:space="preserve">
<rect x="397.964" y="7.758" style="fill:#E1E6E9;" width="38.012" height="43.442"/>
<path style="fill:#193651;" d="M435.2,0h-38.012c-4.655,0-7.758,3.103-7.758,7.758V51.2c0,4.655,3.103,7.758,7.758,7.758H435.2
	c4.655,0,7.758-3.103,7.758-7.758V7.758C442.958,3.103,439.855,0,435.2,0z M427.442,43.442h-22.497V15.515h22.497V43.442z"/>
<polygon style="fill:#FFFFFF;" points="381.673,426.667 416.582,468.558 451.491,426.667 451.491,159.806 381.673,159.806 "/>
<path style="fill:#193651;" d="M416.582,476.315c-2.327,0-4.655-0.776-6.206-3.103l-34.909-41.891
	c-1.552-1.552-1.552-3.103-1.552-4.655V159.806c0-4.655,3.103-7.758,7.758-7.758h69.818c4.655,0,7.758,3.103,7.758,7.758v266.861
	c0,1.552-0.776,3.879-1.552,4.655l-34.909,41.891C421.236,475.539,418.909,476.315,416.582,476.315z M389.43,424.339l27.151,32.582
	l27.152-32.582v-256H389.43V424.339z"/>
<polygon style="fill:#F16051;" points="427.442,190.836 427.442,415.806 416.582,429.77 405.721,415.806 405.721,190.836 "/>
<rect x="381.673" y="51.2" style="fill:#FFFFFF;" width="69.818" height="108.606"/>
<path style="fill:#193651;" d="M451.491,167.564h-69.818c-4.655,0-7.758-3.103-7.758-7.758V51.2c0-4.655,3.103-7.758,7.758-7.758
	h69.818c4.655,0,7.758,3.103,7.758,7.758v108.606C459.249,164.461,456.145,167.564,451.491,167.564z M389.43,152.048h54.303V58.958
	H389.43V152.048z"/>
<rect x="405.721" y="82.23" style="fill:#F16051;" width="20.945" height="46.545"/>
<g>
	<path style="fill:#193651;" d="M350.642,195.491c-4.655,0-7.758-3.103-7.758-7.758V51.2c0-4.655,3.103-7.758,7.758-7.758h31.03
		c4.655,0,7.758,3.103,7.758,7.758s-3.103,7.758-7.758,7.758H358.4v128.776C358.4,192.388,354.521,195.491,350.642,195.491z"/>
	<path style="fill:#193651;" d="M416.582,496.485c-4.655,0-7.758-3.103-7.758-7.758v-20.17c0-4.655,3.103-7.758,7.758-7.758
		c4.655,0,7.758,3.103,7.758,7.758v20.17C424.339,493.382,421.236,496.485,416.582,496.485z"/>
</g>
<polygon style="fill:#4FBF9F;" points="294.788,411.152 294.788,88.436 248.242,7.758 202.473,88.436 202.473,411.152 "/>
<path style="fill:#193651;" d="M294.788,418.909h-92.315c-4.655,0-7.758-3.103-7.758-7.758V88.436c0-1.552,0-2.327,0.776-3.879
	l45.77-80.679C242.812,1.552,245.915,0,248.242,0l0,0c3.103,0,5.43,1.552,6.982,3.879l45.77,80.679
	c0.776,1.552,0.776,2.327,0.776,3.879l0.776,322.715c0,2.327-0.776,3.879-2.327,5.43
	C298.667,418.133,296.339,418.909,294.788,418.909z M210.23,403.394h76.8V90.764l-38.788-67.491L210.23,90.764V403.394z"/>
<rect x="232.727" y="88.436" style="fill:#FFFFFF;" width="31.806" height="315.733"/>
<polyline style="fill:#FDBF5E;" points="294.788,88.436 248.242,7.758 202.473,88.436 "/>
<g>
	<path style="fill:#193651;" d="M294.788,96.194c-2.327,0-5.43-1.552-6.982-3.879l-39.564-69.042l-38.788,69.042
		c-2.327,3.879-6.982,4.655-10.861,3.103c-3.879-2.327-4.655-6.982-3.103-10.861l45.77-80.679c3.103-4.655,10.861-4.655,13.188,0
		l45.77,80.679c2.327,3.879,0.776,8.533-3.103,10.861C297.115,95.418,295.564,96.194,294.788,96.194z"/>
	<polygon style="fill:#193651;" points="266.861,39.564 248.242,7.758 230.4,39.564 	"/>
	<path style="fill:#193651;" d="M266.861,47.321h-35.685c-3.103,0-5.43-1.552-6.982-3.879c-1.552-2.327-1.552-5.43,0-7.758
		l17.842-31.806c3.103-4.655,10.861-4.655,13.188,0l17.842,31.806c1.552,2.327,1.552,5.43,0,7.758S269.188,47.321,266.861,47.321z
		 M243.588,31.806h9.309l-4.655-8.533L243.588,31.806z"/>
</g>
<path style="fill:#F16051;" d="M202.473,411.152v54.303c0,13.188,10.085,23.273,23.273,23.273h45.77
	c13.188,0,23.273-10.085,23.273-23.273v-54.303H202.473z"/>
<path style="fill:#193651;" d="M271.515,496.485h-45.77c-17.067,0-31.03-13.964-31.03-31.03v-54.303
	c0-4.655,3.103-7.758,7.758-7.758h92.315c4.655,0,7.758,3.103,7.758,7.758v54.303C302.545,482.521,288.582,496.485,271.515,496.485z
	 M210.23,418.909v46.545c0,8.533,6.982,15.515,15.515,15.515h45.77c8.533,0,15.515-6.982,15.515-15.515v-46.545H210.23z"/>
<path style="fill:#FDBF5E;" d="M118.691,159.03H79.903L62.836,449.164c-0.776,20.945,15.515,38.012,36.461,38.012
	s37.236-17.842,36.461-38.012L118.691,159.03z"/>
<path style="fill:#193651;" d="M99.297,495.709c-25.6,0-45.77-20.945-44.218-46.545L72.145,159.03c0-3.879,3.879-6.982,7.758-6.982
	h38.788c3.879,0,7.758,3.103,7.758,6.982l17.067,290.133C145.067,474.764,124.897,495.709,99.297,495.709z M87.661,166.788
	L70.594,449.939c-0.776,16.291,12.412,30.255,28.703,30.255S128.776,466.23,128,449.939l-16.291-283.151H87.661z"/>
<path style="fill:#2EA2DB;" d="M44.994,107.055c0-34.133,54.303-98.521,54.303-98.521S153.6,72.921,153.6,107.055
	s-24.048,61.285-54.303,61.285C69.042,169.115,44.994,141.188,44.994,107.055z"/>
<path style="fill:#193651;" d="M99.297,176.873c-34.133,0-62.061-31.03-62.061-69.042c0-35.685,50.424-96.97,56.63-103.952
	C96.97,0,102.4,0,105.503,3.879c5.43,6.982,56.63,67.491,56.63,103.952C161.358,145.067,133.43,176.873,99.297,176.873z
	 M99.297,20.945C82.23,42.667,52.752,84.558,52.752,107.055c0,29.479,20.945,53.527,46.545,53.527s46.545-24.048,46.545-53.527
	C145.842,84.558,116.364,42.667,99.297,20.945z"/>
<g>
	<rect x="91.539" y="335.903" style="fill:#193651;" width="15.515" height="15.515"/>
	<rect x="91.539" y="377.794" style="fill:#193651;" width="15.515" height="15.515"/>
	<rect x="91.539" y="419.685" style="fill:#193651;" width="15.515" height="15.515"/>
</g>
<g>
</g>
<g>
</g>
<g>
</g>
<g>
</g>
<g>
</g>
<g>
</g>
<g>
</g>
<g>
</g>
<g>
</g>
<g>
</g>
<g>
</g>
<g>
</g>
<g>
</g>
<g>
</g>
<g>
</g>
</svg>
