<?xml version="1.0" encoding="iso-8859-1"?>
<!-- Generator: Adobe Illustrator 19.0.0, SVG Export Plug-In . SVG Version: 6.00 Build 0)  -->
<svg version="1.1" id="Capa_1" xmlns="http://www.w3.org/2000/svg" xmlns:xlink="http://www.w3.org/1999/xlink" x="0px" y="0px"
	 viewBox="0 0 505.864 505.864" style="enable-background:new 0 0 505.864 505.864;" xml:space="preserve">
<polygon style="fill:#CFD0D1;" points="221.937,493.417 114.882,350.677 7.828,493.417 "/>
<path style="fill:#193651;" d="M221.937,501.174H7.828c-3.103,0-5.43-1.552-6.982-4.655c-1.552-2.327-0.776-5.43,0.776-7.758
	l107.055-142.739c3.103-3.879,9.309-3.879,12.412,0l107.055,142.739c1.552,2.327,2.327,5.43,0.776,7.758
	C227.367,499.623,224.264,501.174,221.937,501.174z M23.343,485.659h183.079l-91.539-122.57L23.343,485.659z"/>
<polygon style="fill:#FFFFFF;" points="69.888,462.387 114.882,402.653 159.876,462.387 "/>
<path style="fill:#2EA2DB;" d="M97.815,238.968c-0.776-7.758-6.206-13.188-13.964-13.188c-2.327,0-4.655,0.776-6.206,1.552
	C72.991,220.35,65.234,214.92,56.7,214.92c-13.188,0-24.048,10.861-24.824,24.048c-9.309,2.327-15.515,10.085-15.515,19.394
	c0,10.861,9.309,20.17,20.17,20.17h58.182c10.861,0,20.17-9.309,20.17-20.17C114.106,249.053,107.124,241.296,97.815,238.968z"/>
<path style="fill:#193651;" d="M93.937,287.065H35.755c-15.515,0-27.927-12.412-27.927-27.927c0-10.861,6.206-20.945,16.291-25.6
	c3.103-14.739,16.291-26.376,31.806-26.376c9.309,0,17.842,3.879,24.048,10.861c10.861-1.552,20.945,4.655,24.048,14.739
	c10.085,3.879,17.067,14.739,17.067,25.6C121.864,274.653,109.452,287.065,93.937,287.065z M55.924,222.677
	c-9.309,0-17.067,6.982-17.067,16.291c0,3.879-2.327,6.206-6.206,6.982c-5.43,2.327-9.309,6.982-9.309,13.188
	c0,6.982,5.43,12.412,12.412,12.412h58.182c6.982,0,12.412-5.43,12.412-12.412c0-6.206-3.879-10.861-10.085-12.412
	c-3.103-0.776-6.206-3.879-6.206-6.982c0-4.655-4.655-7.758-9.309-5.43c-3.879,1.552-7.758,0.776-10.085-3.103
	C67.561,226.556,62.131,222.677,55.924,222.677z"/>
<path style="fill:#2EA2DB;" d="M475.609,155.187c-0.776-9.309-8.533-17.067-17.842-17.067c-3.103,0-5.43,0.776-7.758,2.327
	c-5.43-9.309-15.515-15.515-27.152-15.515c-17.067,0-31.03,13.964-31.806,30.255c-11.636,2.327-20.17,13.188-20.17,24.824
	c0,13.964,11.636,25.6,25.6,25.6h73.697c13.964,0,25.6-11.636,25.6-25.6C496.555,167.599,487.246,157.514,475.609,155.187z"/>
<path style="fill:#193651;" d="M470.955,214.144h-73.697c-18.618,0-33.358-14.739-33.358-33.358c0-13.964,8.533-25.6,20.945-31.03
	c3.103-18.618,19.394-32.582,38.788-32.582c11.636,0,22.497,5.43,30.255,13.964c1.552,0,3.103-0.776,5.43-0.776
	c11.636,0,21.721,7.758,24.824,18.618c13.188,4.655,21.721,17.067,21.721,31.03C504.312,198.629,489.573,214.144,470.955,214.144z
	 M422.858,132.69c-13.188,0-23.273,10.085-24.048,23.273c0,3.879-2.327,6.206-6.206,6.982c-8.533,1.552-13.964,9.309-13.964,17.842
	c0,10.085,7.758,17.842,17.842,17.842h73.697c10.085,0,17.842-7.758,17.842-17.842c0-8.533-6.206-16.291-14.739-17.842
	c-3.103-0.776-6.206-3.879-6.206-6.982c-0.776-6.982-7.758-11.636-14.739-8.533c-3.879,1.552-7.758,0.776-10.085-3.103
	C439.149,137.344,431.391,132.69,422.858,132.69z"/>
<polygon style="fill:#CFD0D1;" points="496.555,493.417 389.5,290.168 282.446,493.417 "/>
<path style="fill:#193651;" d="M496.555,501.174H282.446c-3.103,0-5.43-1.552-6.982-3.879c-1.552-2.327-1.552-5.43,0-7.758
	L382.518,286.29c2.327-5.43,10.861-5.43,13.964,0l107.055,203.248c1.551,2.327,1.551,5.43,0,7.758
	C501.985,499.623,498.882,501.174,496.555,501.174z M295.634,485.659h187.733l-93.867-179.2L295.634,485.659z"/>
<polygon style="fill:#FFFFFF;" points="334.421,462.387 389.5,356.883 445.355,462.387 "/>
<polygon style="fill:#E1E6E9;" points="399.585,493.417 289.428,268.447 239.003,324.302 204.094,289.393 104.021,493.417 "/>
<path style="fill:#193651;" d="M399.585,501.174H104.021c-2.327,0-5.43-1.552-6.206-3.879c-1.552-2.327-1.552-5.43,0-7.758
	l100.073-204.024c0.776-2.327,3.103-3.879,5.43-3.879c2.327-0.776,4.655,0.776,6.982,2.327l29.479,29.479l44.994-48.873
	c1.552-1.552,3.879-3.103,6.982-2.327c2.327,0,4.655,2.327,6.206,3.879l110.158,224.97c1.552,2.327,0.776,5.43,0,7.758
	C404.24,499.623,401.912,501.174,399.585,501.174z M116.434,485.659h270.739L287.1,282.411l-42.667,46.545
	c-1.552,1.552-3.103,2.327-5.43,2.327c-2.327,0-3.879-0.776-5.43-2.327l-27.152-27.152L116.434,485.659z"/>
<polygon style="fill:#FFFFFF;" points="151.343,465.49 212.628,339.817 239.779,366.968 280.894,321.974 351.488,465.49 "/>
<polygon style="fill:#FDBF5E;" points="289.428,268.447 251.415,192.423 204.094,289.393 239.003,324.302 "/>
<path style="fill:#193651;" d="M239.003,332.059c-2.327,0-3.879-0.776-5.43-2.327l-34.909-34.909
	c-2.327-2.327-3.103-6.206-1.552-8.533l47.321-97.745c2.327-5.43,11.636-5.43,13.964,0l38.012,76.8
	c1.552,3.103,0.776,6.206-1.552,8.533l-50.424,55.079C242.882,331.283,241.331,332.059,239.003,332.059L239.003,332.059z
	 M213.403,287.841l25.6,25.6l41.115-44.994l-28.703-57.406L213.403,287.841z"/>
<path style="fill:#FFFFFF;" d="M222.712,165.271c-17.842-24.824-59.733-86.885-59.733-124.121"/>
<g>
	<path style="fill:#193651;" d="M216.506,169.926c-1.552-1.552-3.103-3.879-4.655-6.206l12.412-9.309
		c1.552,2.327,3.103,4.655,4.655,6.206L216.506,169.926z"/>
	<path style="fill:#193651;" d="M204.094,152.083c-2.327-3.879-4.655-7.758-7.758-11.636l13.188-8.533
		c2.327,3.879,5.43,7.758,7.758,11.636L204.094,152.083z M189.355,128.811c-2.327-3.879-4.655-7.758-6.982-12.412l13.188-7.758
		c2.327,3.879,4.655,7.758,6.982,11.636L189.355,128.811z M175.391,103.987c-2.327-3.879-4.655-8.533-6.206-12.412l13.964-6.206
		c1.552,3.879,3.879,7.758,6.206,11.636L175.391,103.987z M163.755,78.387c-1.552-4.655-3.103-9.309-4.655-13.964l14.739-4.655
		c0.776,3.879,2.327,7.758,3.879,12.412L163.755,78.387z"/>
	<path style="fill:#193651;" d="M155.997,50.459c-0.776-3.103-0.776-6.206-0.776-8.533h15.515c0,2.327,0,4.655,0.776,6.982
		L155.997,50.459z"/>
</g>
<path style="fill:#FFFFFF;" d="M339.852,41.15c0,37.236-41.891,99.297-59.733,124.121"/>
<g>
	<path style="fill:#193651;" d="M347.609,50.459l-15.515-2.327c0-2.327,0.776-4.655,0.776-6.982h15.515
		C347.609,44.253,347.609,47.356,347.609,50.459z"/>
	<path style="fill:#193651;" d="M298.737,152.083l-13.188-8.533c2.327-3.879,4.655-6.982,7.758-11.636l13.188,8.533
		C304.167,144.326,301.064,148.205,298.737,152.083z M314.252,128.811l-13.188-7.758c2.327-3.879,4.655-7.758,6.982-11.636
		l13.188,7.758C318.906,121.053,316.579,124.932,314.252,128.811z M327.44,103.987l-13.188-6.982
		c2.327-3.879,3.879-7.758,6.206-11.636l13.964,6.206C332.094,95.453,329.767,100.108,327.44,103.987z M339.852,78.387l-14.739-5.43
		c1.552-4.655,3.103-8.533,3.879-12.412l14.739,4.655C342.955,69.077,341.403,73.732,339.852,78.387z"/>
	<path style="fill:#193651;" d="M286.325,169.926l-12.412-9.309c1.552-1.552,3.103-3.879,4.655-6.206l12.412,9.309
		C289.428,166.047,287.876,168.374,286.325,169.926z"/>
</g>
<path style="fill:#FFFFFF;" d="M297.961,58.993c0,25.6-46.545,90.764-46.545,90.764S204.87,85.368,204.87,58.993
	s20.945-46.545,46.545-46.545C277.015,12.447,297.961,33.393,297.961,58.993z"/>
<path style="fill:#193651;" d="M251.415,157.514c-2.327,0-4.655-1.552-6.206-3.103c-4.655-6.982-48.097-67.491-48.097-95.418
	c0-30.255,24.824-54.303,54.303-54.303s54.303,24.824,54.303,54.303c0,27.927-43.442,88.436-48.097,95.418
	C256.07,156.738,253.743,157.514,251.415,157.514z M251.415,20.205c-21.721,0-38.788,17.842-38.788,38.788
	c0,14.739,21.721,51.976,38.788,76.8c17.067-24.824,38.788-62.061,38.788-76.8C290.203,38.047,273.137,20.205,251.415,20.205z"/>
<circle style="fill:#F16051;" cx="251.415" cy="59.768" r="23.273"/>
<g>
</g>
<g>
</g>
<g>
</g>
<g>
</g>
<g>
</g>
<g>
</g>
<g>
</g>
<g>
</g>
<g>
</g>
<g>
</g>
<g>
</g>
<g>
</g>
<g>
</g>
<g>
</g>
<g>
</g>
</svg>
